0
SECTION
2
ENTITIES
999
Created by Metasequoia
0
3DFACE
8
layer1
62
1
10
-0.25304
20
-1.00623
30
0.00404
11
-0.29054
21
0.46173
31
0.17039
12
-0.52422
22
0.39440
32
0.01041
0
3DFACE
8
layer1
62
1
10
-0.25304
20
-1.00623
30
0.00404
11
-0.52422
21
0.39440
31
0.01041
12
-0.27887
22
0.46902
32
-0.09393
0
3DFACE
8
layer1
62
1
10
-0.25304
20
-1.00623
30
0.00404
11
-0.11354
21
0.21027
31
-0.00566
12
-0.29054
22
0.46173
32
0.17039
0
3DFACE
8
layer1
62
1
10
-0.25304
20
-1.00623
30
0.00404
11
-0.27887
21
0.46902
31
-0.09393
12
-0.11354
22
0.21027
32
-0.00566
0
3DFACE
8
layer1
62
1
10
0.25304
20
-1.00623
30
0.00404
11
0.52422
21
0.39440
31
0.01041
12
0.29054
22
0.46173
32
0.17039
0
3DFACE
8
layer1
62
1
10
0.25304
20
-1.00623
30
0.00404
11
0.27887
21
0.46902
31
-0.09393
12
0.52422
22
0.39440
32
0.01041
0
3DFACE
8
layer1
62
1
10
0.25304
20
-1.00623
30
0.00404
11
0.29054
21
0.46173
31
0.17039
12
0.11354
22
0.21027
32
-0.00566
0
3DFACE
8
layer1
62
1
10
0.25304
20
-1.00623
30
0.00404
11
0.11354
21
0.21027
31
-0.00566
12
0.27887
22
0.46902
32
-0.09393
0
3DFACE
8
layer1
62
1
10
-0.52422
20
0.39440
30
0.01041
11
-0.19521
21
0.81539
31
0.08610
12
-0.21492
22
0.90150
32
0.00528
0
3DFACE
8
layer1
62
1
10
-0.52422
20
0.39440
30
0.01041
11
-0.21492
21
0.90150
31
0.00528
12
-0.21532
22
0.78928
32
-0.05625
0
3DFACE
8
layer1
62
1
10
-0.52422
20
0.39440
30
0.01041
11
-0.29054
21
0.46173
31
0.17039
12
-0.19521
22
0.81539
32
0.08610
0
3DFACE
8
layer1
62
1
10
-0.52422
20
0.39440
30
0.01041
11
-0.21532
21
0.78928
31
-0.05625
12
-0.27887
22
0.46902
32
-0.09393
0
3DFACE
8
layer1
62
1
10
0.52422
20
0.39440
30
0.01041
11
0.21492
21
0.90150
31
0.00528
12
0.19521
22
0.81539
32
0.08610
0
3DFACE
8
layer1
62
1
10
0.52422
20
0.39440
30
0.01041
11
0.21532
21
0.78928
31
-0.05625
12
0.21492
22
0.90150
32
0.00528
0
3DFACE
8
layer1
62
1
10
0.52422
20
0.39440
30
0.01041
11
0.19521
21
0.81539
31
0.08610
12
0.29054
22
0.46173
32
0.17039
0
3DFACE
8
layer1
62
1
10
0.52422
20
0.39440
30
0.01041
11
0.27887
21
0.46902
31
-0.09393
12
0.21532
22
0.78928
32
-0.05625
0
3DFACE
8
layer1
62
1
10
-0.21492
20
0.90150
30
0.00528
11
-0.19521
21
0.81539
31
0.08610
12
-0.10810
22
0.90448
32
0.00326
0
3DFACE
8
layer1
62
1
10
-0.21492
20
0.90150
30
0.00528
11
-0.10810
21
0.90448
31
0.00326
12
-0.21532
22
0.78928
32
-0.05625
0
3DFACE
8
layer1
62
1
10
0.21492
20
0.90150
30
0.00528
11
0.10810
21
0.90448
31
0.00326
12
0.19521
22
0.81539
32
0.08610
0
3DFACE
8
layer1
62
1
10
0.21492
20
0.90150
30
0.00528
11
0.21532
21
0.78928
31
-0.05625
12
0.10810
22
0.90448
32
0.00326
0
3DFACE
8
layer1
62
1
10
-0.10810
20
0.90448
30
0.00326
11
-0.19521
21
0.81539
31
0.08610
12
-0.10523
22
0.46410
32
-0.00657
0
3DFACE
8
layer1
62
1
10
-0.10810
20
0.90448
30
0.00326
11
-0.10523
21
0.46410
31
-0.00657
12
-0.21532
22
0.78928
32
-0.05625
0
3DFACE
8
layer1
62
1
10
0.10810
20
0.90448
30
0.00326
11
0.10523
21
0.46410
31
-0.00657
12
0.19521
22
0.81539
32
0.08610
0
3DFACE
8
layer1
62
1
10
0.10810
20
0.90448
30
0.00326
11
0.21532
21
0.78928
31
-0.05625
12
0.10523
22
0.46410
32
-0.00657
0
3DFACE
8
layer1
62
1
10
-0.11354
20
0.21027
30
-0.00566
11
-0.10523
21
0.46410
31
-0.00657
12
-0.19521
22
0.81539
32
0.08610
0
3DFACE
8
layer1
62
1
10
-0.11354
20
0.21027
30
-0.00566
11
-0.21532
21
0.78928
31
-0.05625
12
-0.10523
22
0.46410
32
-0.00657
0
3DFACE
8
layer1
62
1
10
-0.11354
20
0.21027
30
-0.00566
11
-0.19521
21
0.81539
31
0.08610
12
-0.29054
22
0.46173
32
0.17039
0
3DFACE
8
layer1
62
1
10
-0.11354
20
0.21027
30
-0.00566
11
-0.27887
21
0.46902
31
-0.09393
12
-0.21532
22
0.78928
32
-0.05625
0
3DFACE
8
layer1
62
1
10
0.11354
20
0.21027
30
-0.00566
11
0.19521
21
0.81539
31
0.08610
12
0.10523
22
0.46410
32
-0.00657
0
3DFACE
8
layer1
62
1
10
0.11354
20
0.21027
30
-0.00566
11
0.10523
21
0.46410
31
-0.00657
12
0.21532
22
0.78928
32
-0.05625
0
3DFACE
8
layer1
62
1
10
0.11354
20
0.21027
30
-0.00566
11
0.29054
21
0.46173
31
0.17039
12
0.19521
22
0.81539
32
0.08610
0
3DFACE
8
layer1
62
1
10
0.11354
20
0.21027
30
-0.00566
11
0.21532
21
0.78928
31
-0.05625
12
0.27887
22
0.46902
32
-0.09393
0
3DFACE
8
layer1
62
1
10
-0.05778
20
0.55867
30
-0.00929
11
-0.02592
21
0.56421
31
-0.05419
12
-0.04286
22
0.52948
32
-0.00713
0
3DFACE
8
layer1
62
1
10
0.05778
20
0.55867
30
-0.00929
11
0.04286
21
0.52948
31
-0.00713
12
0.02592
22
0.56421
32
-0.05419
0
3DFACE
8
layer1
62
1
10
-0.03050
20
0.78718
30
-0.01019
11
-0.02175
21
0.82559
31
-0.02894
12
-0.01947
22
0.78733
32
-0.04467
0
3DFACE
8
layer1
62
1
10
0.03050
20
0.78718
30
-0.01019
11
0.01947
21
0.78733
31
-0.04467
12
0.02175
22
0.82559
32
-0.02894
0
3DFACE
8
layer1
62
1
10
-0.11354
20
0.21027
30
-0.00566
11
-0.19521
21
0.81539
31
0.08610
12
-0.52422
22
0.39440
32
0.01041
0
3DFACE
8
layer1
62
1
10
-0.11354
20
0.21027
30
-0.00566
11
-0.52422
21
0.39440
31
0.01041
12
-0.25304
22
-1.00623
32
0.00404
0
3DFACE
8
layer1
62
1
10
-0.52422
20
0.39440
30
0.01041
11
-0.21532
21
0.78928
31
-0.05625
12
-0.11354
22
0.21027
32
-0.00566
0
3DFACE
8
layer1
62
1
10
-0.52422
20
0.39440
30
0.01041
11
-0.11354
21
0.21027
31
-0.00566
12
-0.25304
22
-1.00623
32
0.00404
0
3DFACE
8
layer1
62
1
10
0.52422
20
0.39440
30
0.01041
11
0.19521
21
0.81539
31
0.08610
12
0.11354
22
0.21027
32
-0.00566
0
3DFACE
8
layer1
62
1
10
0.52422
20
0.39440
30
0.01041
11
0.11354
21
0.21027
31
-0.00566
12
0.25304
22
-1.00623
32
0.00404
0
3DFACE
8
layer1
62
1
10
0.11354
20
0.21027
30
-0.00566
11
0.21532
21
0.78928
31
-0.05625
12
0.52422
22
0.39440
32
0.01041
0
3DFACE
8
layer1
62
1
10
0.11354
20
0.21027
30
-0.00566
11
0.52422
21
0.39440
31
0.01041
12
0.25304
22
-1.00623
32
0.00404
0
3DFACE
8
layer1
62
1
10
-0.29054
20
0.46173
30
0.17039
11
-0.11354
21
0.21027
31
-0.00566
12
-0.21532
22
0.78928
32
-0.05625
0
3DFACE
8
layer1
62
1
10
-0.29054
20
0.46173
30
0.17039
11
-0.21532
21
0.78928
31
-0.05625
12
-0.52422
22
0.39440
32
0.01041
0
3DFACE
8
layer1
62
1
10
-0.29054
20
0.46173
30
0.17039
11
-0.11354
21
0.21027
31
-0.00566
12
-0.27887
22
0.46902
32
-0.09393
0
3DFACE
8
layer1
62
1
10
-0.29054
20
0.46173
30
0.17039
11
-0.27887
21
0.46902
31
-0.09393
12
-0.52422
22
0.39440
32
0.01041
0
3DFACE
8
layer1
62
1
10
-0.19521
20
0.81539
30
0.08610
11
-0.10810
21
0.90448
31
0.00326
12
-0.21532
22
0.78928
32
-0.05625
0
3DFACE
8
layer1
62
1
10
-0.19521
20
0.81539
30
0.08610
11
-0.21532
21
0.78928
31
-0.05625
12
-0.52422
22
0.39440
32
0.01041
0
3DFACE
8
layer1
62
1
10
-0.19521
20
0.81539
30
0.08610
11
-0.11354
21
0.21027
31
-0.00566
12
-0.21532
22
0.78928
32
-0.05625
0
3DFACE
8
layer1
62
1
10
-0.19521
20
0.81539
30
0.08610
11
-0.21532
21
0.78928
31
-0.05625
12
-0.52422
22
0.39440
32
0.01041
0
3DFACE
8
layer1
62
1
10
-0.19521
20
0.81539
30
0.08610
11
-0.10523
21
0.46410
31
-0.00657
12
-0.21532
22
0.78928
32
-0.05625
0
3DFACE
8
layer1
62
1
10
-0.19521
20
0.81539
30
0.08610
11
-0.21532
21
0.78928
31
-0.05625
12
-0.52422
22
0.39440
32
0.01041
0
3DFACE
8
layer1
62
1
10
-0.19521
20
0.81539
30
0.08610
11
-0.11354
21
0.21027
31
-0.00566
12
-0.27887
22
0.46902
32
-0.09393
0
3DFACE
8
layer1
62
1
10
-0.19521
20
0.81539
30
0.08610
11
-0.27887
21
0.46902
31
-0.09393
12
-0.52422
22
0.39440
32
0.01041
0
3DFACE
8
layer1
62
1
10
0.29054
20
0.46173
30
0.17039
11
0.11354
21
0.21027
31
-0.00566
12
0.21532
22
0.78928
32
-0.05625
0
3DFACE
8
layer1
62
1
10
0.29054
20
0.46173
30
0.17039
11
0.21532
21
0.78928
31
-0.05625
12
0.52422
22
0.39440
32
0.01041
0
3DFACE
8
layer1
62
1
10
0.29054
20
0.46173
30
0.17039
11
0.11354
21
0.21027
31
-0.00566
12
0.27887
22
0.46902
32
-0.09393
0
3DFACE
8
layer1
62
1
10
0.29054
20
0.46173
30
0.17039
11
0.27887
21
0.46902
31
-0.09393
12
0.52422
22
0.39440
32
0.01041
0
3DFACE
8
layer1
62
1
10
0.21532
20
0.78928
30
-0.05625
11
0.10810
21
0.90448
31
0.00326
12
0.19521
22
0.81539
32
0.08610
0
3DFACE
8
layer1
62
1
10
0.21532
20
0.78928
30
-0.05625
11
0.19521
21
0.81539
31
0.08610
12
0.52422
22
0.39440
32
0.01041
0
3DFACE
8
layer1
62
1
10
0.19521
20
0.81539
30
0.08610
11
0.11354
21
0.21027
31
-0.00566
12
0.21532
22
0.78928
32
-0.05625
0
3DFACE
8
layer1
62
1
10
0.19521
20
0.81539
30
0.08610
11
0.21532
21
0.78928
31
-0.05625
12
0.52422
22
0.39440
32
0.01041
0
3DFACE
8
layer1
62
1
10
0.19521
20
0.81539
30
0.08610
11
0.10523
21
0.46410
31
-0.00657
12
0.21532
22
0.78928
32
-0.05625
0
3DFACE
8
layer1
62
1
10
0.19521
20
0.81539
30
0.08610
11
0.21532
21
0.78928
31
-0.05625
12
0.52422
22
0.39440
32
0.01041
0
3DFACE
8
layer1
62
1
10
0.19521
20
0.81539
30
0.08610
11
0.11354
21
0.21027
31
-0.00566
12
0.27887
22
0.46902
32
-0.09393
0
3DFACE
8
layer1
62
1
10
0.19521
20
0.81539
30
0.08610
11
0.27887
21
0.46902
31
-0.09393
12
0.52422
22
0.39440
32
0.01041
0
3DFACE
8
layer1
62
1
10
-0.19521
20
0.81539
30
0.08610
11
-0.11354
21
0.21027
31
-0.00566
12
-0.21532
22
0.78928
32
-0.05625
0
3DFACE
8
layer1
62
1
10
-0.19521
20
0.81539
30
0.08610
11
-0.21532
21
0.78928
31
-0.05625
12
-0.21492
22
0.90150
32
0.00528
0
3DFACE
8
layer1
62
1
10
-0.19521
20
0.81539
30
0.08610
11
-0.10523
21
0.46410
31
-0.00657
12
-0.21532
22
0.78928
32
-0.05625
0
3DFACE
8
layer1
62
1
10
-0.19521
20
0.81539
30
0.08610
11
-0.21532
21
0.78928
31
-0.05625
12
-0.21492
22
0.90150
32
0.00528
0
3DFACE
8
layer1
62
1
10
0.19521
20
0.81539
30
0.08610
11
0.11354
21
0.21027
31
-0.00566
12
0.21532
22
0.78928
32
-0.05625
0
3DFACE
8
layer1
62
1
10
0.19521
20
0.81539
30
0.08610
11
0.21532
21
0.78928
31
-0.05625
12
0.21492
22
0.90150
32
0.00528
0
3DFACE
8
layer1
62
1
10
0.19521
20
0.81539
30
0.08610
11
0.10523
21
0.46410
31
-0.00657
12
0.21532
22
0.78928
32
-0.05625
0
3DFACE
8
layer1
62
1
10
0.19521
20
0.81539
30
0.08610
11
0.21532
21
0.78928
31
-0.05625
12
0.21492
22
0.90150
32
0.00528
0
3DFACE
8
layer1
62
1
10
-0.10810
20
0.90448
30
0.00326
11
-0.03050
21
0.78718
31
-0.01019
12
-0.05778
22
0.55867
32
-0.00929
0
3DFACE
8
layer1
62
1
10
-0.10810
20
0.90448
30
0.00326
11
-0.05778
21
0.55867
31
-0.00929
12
-0.10523
22
0.46410
32
-0.00657
0
3DFACE
8
layer1
62
1
10
-0.19521
20
0.81539
30
0.08610
11
-0.11354
21
0.21027
31
-0.00566
12
-0.21532
22
0.78928
32
-0.05625
0
3DFACE
8
layer1
62
1
10
-0.19521
20
0.81539
30
0.08610
11
-0.21532
21
0.78928
31
-0.05625
12
-0.10810
22
0.90448
32
0.00326
0
3DFACE
8
layer1
62
1
10
0.10810
20
0.90448
30
0.00326
11
0.10523
21
0.46410
31
-0.00657
12
0.05778
22
0.55867
32
-0.00929
0
3DFACE
8
layer1
62
1
10
0.10810
20
0.90448
30
0.00326
11
0.05778
21
0.55867
31
-0.00929
12
0.03050
22
0.78718
32
-0.01019
0
3DFACE
8
layer1
62
1
10
0.19521
20
0.81539
30
0.08610
11
0.11354
21
0.21027
31
-0.00566
12
0.21532
22
0.78928
32
-0.05625
0
3DFACE
8
layer1
62
1
10
0.19521
20
0.81539
30
0.08610
11
0.21532
21
0.78928
31
-0.05625
12
0.10810
22
0.90448
32
0.00326
0
3DFACE
8
layer1
62
1
10
0.05778
20
0.55867
30
-0.00929
11
0.03050
21
0.78718
31
-0.01019
12
-0.03050
22
0.78718
32
-0.01019
0
3DFACE
8
layer1
62
1
10
0.05778
20
0.55867
30
-0.00929
11
-0.03050
21
0.78718
31
-0.01019
12
-0.05778
22
0.55867
32
-0.00929
0
3DFACE
8
layer1
62
1
10
-0.04286
20
0.52948
30
-0.00713
11
0.04286
21
0.52948
31
-0.00713
12
0.05778
22
0.55867
32
-0.00929
0
3DFACE
8
layer1
62
1
10
-0.04286
20
0.52948
30
-0.00713
11
0.05778
21
0.55867
31
-0.00929
12
-0.05778
22
0.55867
32
-0.00929
0
3DFACE
8
layer1
62
1
10
-0.02592
20
0.56421
30
-0.05419
11
0.02592
21
0.56421
31
-0.05419
12
0.05778
22
0.55867
32
-0.00929
0
3DFACE
8
layer1
62
1
10
-0.02592
20
0.56421
30
-0.05419
11
0.05778
21
0.55867
31
-0.00929
12
-0.05778
22
0.55867
32
-0.00929
0
3DFACE
8
layer1
62
1
10
-0.03050
20
0.78718
30
-0.01019
11
-0.01947
21
0.78733
31
-0.04467
12
-0.02592
22
0.56421
32
-0.05419
0
3DFACE
8
layer1
62
1
10
-0.03050
20
0.78718
30
-0.01019
11
-0.02592
21
0.56421
31
-0.05419
12
-0.05778
22
0.55867
32
-0.00929
0
3DFACE
8
layer1
62
1
10
0.02592
20
0.56421
30
-0.05419
11
0.01947
21
0.78733
31
-0.04467
12
0.03050
22
0.78718
32
-0.01019
0
3DFACE
8
layer1
62
1
10
0.02592
20
0.56421
30
-0.05419
11
0.03050
21
0.78718
31
-0.01019
12
0.05778
22
0.55867
32
-0.00929
0
3DFACE
8
layer1
62
1
10
0.03050
20
0.78718
30
-0.01019
11
0.02175
21
0.82559
31
-0.02894
12
-0.02175
22
0.82559
32
-0.02894
0
3DFACE
8
layer1
62
1
10
0.03050
20
0.78718
30
-0.01019
11
-0.02175
21
0.82559
31
-0.02894
12
-0.03050
22
0.78718
32
-0.01019
0
3DFACE
8
layer1
62
1
10
0.03050
20
0.78718
30
-0.01019
11
0.01947
21
0.78733
31
-0.04467
12
-0.01947
22
0.78733
32
-0.04467
0
3DFACE
8
layer1
62
1
10
0.03050
20
0.78718
30
-0.01019
11
-0.01947
21
0.78733
31
-0.04467
12
-0.03050
22
0.78718
32
-0.01019
0
3DFACE
8
layer1
62
1
10
-0.04286
20
0.52948
30
-0.00713
11
-0.02592
21
0.56421
31
-0.05419
12
0.02592
22
0.56421
32
-0.05419
0
3DFACE
8
layer1
62
1
10
-0.04286
20
0.52948
30
-0.00713
11
0.02592
21
0.56421
31
-0.05419
12
0.04286
22
0.52948
32
-0.00713
0
3DFACE
8
layer1
62
1
10
0.01947
20
0.78733
30
-0.04467
11
-0.01947
21
0.78733
31
-0.04467
12
-0.02175
22
0.82559
32
-0.02894
0
3DFACE
8
layer1
62
1
10
0.01947
20
0.78733
30
-0.04467
11
-0.02175
21
0.82559
31
-0.02894
12
0.02175
22
0.82559
32
-0.02894
0
3DFACE
8
layer1
62
1
10
-0.02592
20
0.56421
30
-0.05419
11
-0.01947
21
0.78733
31
-0.04467
12
0.01947
22
0.78733
32
-0.04467
0
3DFACE
8
layer1
62
1
10
-0.02592
20
0.56421
30
-0.05419
11
0.01947
21
0.78733
31
-0.04467
12
0.02592
22
0.56421
32
-0.05419
0
3DFACE
8
layer1
62
1
10
0.05778
20
0.55867
30
-0.00929
11
0.10523
21
0.46410
31
-0.00657
12
0.10810
22
0.90448
32
0.00326
0
3DFACE
8
layer1
62
1
10
0.05778
20
0.55867
30
-0.00929
11
0.10810
21
0.90448
31
0.00326
12
0.03050
22
0.78718
32
-0.01019
0
3DFACE
8
layer1
62
1
10
-0.05778
20
0.55867
30
-0.00929
11
-0.03050
21
0.78718
31
-0.01019
12
-0.10810
22
0.90448
32
0.00326
0
3DFACE
8
layer1
62
1
10
-0.05778
20
0.55867
30
-0.00929
11
-0.10810
21
0.90448
31
0.00326
12
-0.10523
22
0.46410
32
-0.00657
0
ENDSEC
0
EOF
